<?xml version="1.0" standalone="no"?>
<!DOCTYPE svg PUBLIC "-//W3C//DTD SVG 20010904//EN"
 "http://www.w3.org/TR/2001/REC-SVG-20010904/DTD/svg10.dtd">
<svg version="1.0" xmlns="http://www.w3.org/2000/svg"
 width="1024.000000pt" height="1024.000000pt" viewBox="0 0 1024.000000 1024.000000"
 preserveAspectRatio="xMidYMid meet">
<metadata>
Created by potrace 1.11, written by Peter Selinger 2001-2013
</metadata>
<g transform="translate(0.000000,1024.000000) scale(0.100000,-0.100000)"
fill="#000000" stroke="none">
<path d="M4849 8846 c-2 -2 -40 -7 -84 -11 -44 -4 -91 -8 -105 -10 -14 -2 -50
-7 -80 -10 -30 -4 -57 -8 -60 -10 -3 -2 -29 -6 -59 -10 -99 -12 -337 -72 -496
-124 -250 -82 -525 -206 -730 -331 -55 -33 -109 -66 -120 -73 -11 -7 -56 -37
-100 -67 -614 -418 -1082 -1003 -1362 -1700 -102 -255 -161 -473 -218 -806 -2
-12 -6 -46 -10 -75 -3 -30 -8 -67 -10 -84 -23 -178 -23 -689 -1 -812 2 -10 7
-49 11 -88 4 -38 9 -79 12 -90 2 -11 8 -49 14 -84 32 -212 142 -583 239 -806
23 -52 144 -299 159 -325 5 -8 37 -62 72 -120 84 -142 264 -400 303 -435 6 -5
36 -41 68 -80 96 -119 305 -325 453 -446 275 -225 672 -462 960 -574 184 -71
230 -88 335 -119 153 -46 308 -81 460 -106 229 -36 335 -44 590 -45 364 0 582
22 885 91 292 67 653 203 882 333 40 23 75 41 78 41 11 0 272 164 340 213 120
87 180 132 190 143 6 6 35 30 65 55 134 108 335 310 461 464 135 164 300 406
389 570 23 44 53 98 65 120 48 87 145 315 193 450 60 170 132 442 147 555 3
25 12 81 20 125 43 246 52 691 19 980 -48 432 -161 816 -354 1210 -158 321
-323 569 -561 845 -148 171 -402 399 -614 551 -78 55 -113 78 -221 146 -120
75 -335 190 -459 246 -130 58 -467 175 -550 191 -11 2 -58 13 -105 24 -104 25
-119 28 -244 47 -21 4 -48 8 -59 11 -12 2 -53 6 -92 10 -38 3 -81 8 -95 11
-29 6 -615 15 -621 9z m478 -1090 c51 -4 103 -9 115 -11 13 -2 44 -7 70 -10
100 -11 298 -58 424 -100 679 -225 1215 -684 1538 -1317 89 -176 173 -390 201
-518 2 -8 10 -46 19 -84 20 -86 43 -226 53 -326 9 -95 9 -432 0 -525 -45 -455
-195 -863 -455 -1240 -134 -195 -267 -340 -483 -530 -143 -127 -431 -302 -659
-402 -199 -88 -494 -166 -715 -189 -165 -17 -319 -22 -460 -13 -120 7 -247 19
-255 24 -3 2 -26 6 -50 10 -432 62 -912 287 -1271 597 -348 299 -627 709 -777
1143 -23 69 -53 163 -57 185 -2 8 -10 45 -19 83 -9 37 -18 81 -21 97 -3 17 -7
43 -10 58 -21 125 -29 245 -29 437 0 224 13 370 48 540 12 59 59 236 73 275
130 368 289 648 522 920 132 154 346 343 511 451 141 92 175 113 286 169 100
50 334 150 369 156 6 1 37 10 70 20 33 10 65 19 70 20 112 27 242 54 285 59
30 3 62 8 70 10 8 2 58 7 110 10 52 4 96 7 97 8 4 5 249 -1 330 -7z"/>
<path d="M4934 6354 c-323 -47 -583 -204 -816 -492 -99 -123 -204 -369 -224
-527 -56 -439 59 -800 346 -1085 245 -242 526 -359 870 -362 74 0 149 2 165 5
17 4 46 9 65 12 19 3 48 8 64 11 93 16 276 91 370 153 153 99 310 254 401 397
180 280 234 652 145 989 -87 327 -350 642 -661 791 -86 42 -237 90 -326 105
-95 16 -302 18 -399 3z"/>
</g>
</svg>
